<?xml version="1.0" encoding="UTF-8" standalone="no"?>
<!-- Created with Inkscape (http://www.inkscape.org/) -->

<!--
  Copyright (c) 2010, 2021 Contributors to the Eclipse Foundation

  See the NOTICE file(s) distributed with this work for additional
  information regarding copyright ownership.

  This program and the accompanying materials are made available under the terms
  of the MIT License which is available at https://opensource.org/licenses/MIT

  SPDX-License-Identifier: MIT
-->

<svg
   xmlns:dc="http://purl.org/dc/elements/1.1/"
   xmlns:cc="http://creativecommons.org/ns#"
   xmlns:rdf="http://www.w3.org/1999/02/22-rdf-syntax-ns#"
   xmlns:svg="http://www.w3.org/2000/svg"
   xmlns="http://www.w3.org/2000/svg"
   xmlns:sodipodi="http://sodipodi.sourceforge.net/DTD/sodipodi-0.dtd"
   xmlns:inkscape="http://www.inkscape.org/namespaces/inkscape"
   width="445"
   height="120"
   id="svg2"
   version="1.1"
   inkscape:version="0.92.4 (5da689c313, 2019-01-14)"
   sodipodi:docname="wrapping_post_expr.svg">
  <sodipodi:namedview
     id="base"
     pagecolor="#ffffff"
     bordercolor="#666666"
     borderopacity="1.0"
     inkscape:pageopacity="0.0"
     inkscape:pageshadow="2"
     inkscape:zoom="2.8284271"
     inkscape:cx="15.805578"
     inkscape:cy="45.415909"
     inkscape:document-units="px"
     inkscape:current-layer="layer1"
     showgrid="false"
     inkscape:window-width="1680"
     inkscape:window-height="987"
     inkscape:window-x="1912"
     inkscape:window-y="-8"
     inkscape:window-maximized="1"
     units="cm" />
  <defs
     id="defs4">
    <marker
       style="overflow:visible"
       id="DiamondM"
       refX="0"
       refY="0"
       orient="auto"
       inkscape:stockid="DiamondM">
      <path
         transform="scale(0.4,0.4)"
         style="fill-rule:evenodd;stroke:#000000;stroke-width:1pt;marker-start:none"
         d="M 0,-7.0710768 -7.0710894,0 0,7.0710589 7.0710462,0 0,-7.0710768 z"
         id="path4323" />
    </marker>
    <marker
       style="overflow:visible"
       id="Arrow2Mend"
       refX="0"
       refY="0"
       orient="auto"
       inkscape:stockid="Arrow2Mend">
      <path
         transform="scale(-0.6,-0.6)"
         d="M 8.7185878,4.0337352 -2.2072895,0.01601326 8.7185884,-4.0017078 c -1.7454984,2.3720609 -1.7354408,5.6174519 -6e-7,8.035443 z"
         style="font-size:12px;fill-rule:evenodd;stroke-width:0.625;stroke-linejoin:round"
         id="path4267" />
    </marker>
    <marker
       style="overflow:visible"
       id="Arrow2Lend"
       refX="0"
       refY="0"
       orient="auto"
       inkscape:stockid="Arrow2Lend">
      <path
         transform="matrix(-1.1,0,0,-1.1,-1.1,0)"
         d="M 8.7185878,4.0337352 -2.2072895,0.01601326 8.7185884,-4.0017078 c -1.7454984,2.3720609 -1.7354408,5.6174519 -6e-7,8.035443 z"
         style="font-size:12px;fill-rule:evenodd;stroke-width:0.625;stroke-linejoin:round"
         id="path4261" />
    </marker>
    <inkscape:perspective
       id="perspective10"
       inkscape:persp3d-origin="372.04724 : 350.78739 : 1"
       inkscape:vp_z="744.09448 : 526.18109 : 1"
       inkscape:vp_y="0 : 1000 : 0"
       inkscape:vp_x="0 : 526.18109 : 1"
       sodipodi:type="inkscape:persp3d" />
    <inkscape:perspective
       sodipodi:type="inkscape:persp3d"
       inkscape:vp_x="0 : 0.5 : 1"
       inkscape:vp_y="0 : 1000 : 0"
       inkscape:vp_z="1 : 0.5 : 1"
       inkscape:persp3d-origin="0.5 : 0.33333333 : 1"
       id="perspective3813" />
    <inkscape:perspective
       sodipodi:type="inkscape:persp3d"
       inkscape:vp_x="0 : 0.5 : 1"
       inkscape:vp_y="0 : 1000 : 0"
       inkscape:vp_z="1 : 0.5 : 1"
       inkscape:persp3d-origin="0.5 : 0.33333333 : 1"
       id="perspective3835" />
  </defs>
  <metadata
     id="metadata7">
    <rdf:RDF>
      <cc:Work
         rdf:about="">
        <dc:format>image/svg+xml</dc:format>
        <dc:type
           rdf:resource="http://purl.org/dc/dcmitype/StillImage" />
        <dc:title></dc:title>
      </cc:Work>
    </rdf:RDF>
  </metadata>
  <g
     transform="translate(0,-932.36082)"
     id="layer1"
     inkscape:groupmode="layer"
     inkscape:label="Layer 1">
    <rect
       style="fill:#969696;fill-opacity:1;stroke:#000000;stroke-width:1;stroke-miterlimit:4;stroke-opacity:1;stroke-dasharray:3.99999999000000006, 3.99999999000000006;stroke-dashoffset:0"
       id="rect4151"
       width="235.48233"
       height="39.39595"
       x="113.94928"
       y="971.68561" />
    <g
       transform="translate(-18.439182,805.85292)"
       id="g3973">
      <g
         style="font-style:normal;font-variant:normal;font-weight:normal;font-stretch:normal;letter-spacing:normal;word-spacing:normal;text-anchor:start;fill:none;stroke:#000000;stroke-linecap:butt;stroke-linejoin:miter;stroke-miterlimit:10.43299961;stroke-opacity:1;stroke-dasharray:none;stroke-dashoffset:0"
         id="g3975"
         transform="matrix(0.5061867,0,0,-0.5061867,-88.582672,398.62202)"
         xml:space="preserve"
         stroke-miterlimit="10.433"
         fill-rule="even-odd"
         font-style="normal"
         font-variant="normal"
         font-weight="normal"
         font-stretch="normal"
         font-size-adjust="none"
         letter-spacing="normal"
         word-spacing="normal"><path
           style="fill:#000000;stroke-width:0"
           d="m 484.99,418.85 h -1.24 c -0.55,-5.08 -1.25,-11.31 -10.02,-11.31 h -4.08 c -2.34,0 -2.44,0.35 -2.44,2 v 26.55 c 0,1.69 0,2.39 4.73,2.39 h 1.65 v 1.54 c -1.8,-0.15 -6.33,-0.15 -8.38,-0.15 -1.94,0 -5.82,0 -7.57,0.15 v -1.54 h 1.2 c 3.84,0 3.93,-0.55 3.93,-2.34 v -26.25 c 0,-1.8 -0.09,-2.35 -3.93,-2.35 h -1.2 V 406 h 25.96 z"
           id="path3977" /><path
           style="fill:#000000;stroke-width:0"
           d="m 510.46,416.66 -0.01,0.59 -0.05,0.59 -0.07,0.58 -0.09,0.57 -0.13,0.56 -0.15,0.55 -0.17,0.54 -0.2,0.53 -0.22,0.52 -0.25,0.5 -0.26,0.49 -0.29,0.47 -0.31,0.46 -0.33,0.44 -0.35,0.42 -0.36,0.41 -0.39,0.39 -0.4,0.36 -0.41,0.35 -0.44,0.33 -0.44,0.3 -0.46,0.29 -0.48,0.26 -0.48,0.23 -0.5,0.21 -0.51,0.19 -0.52,0.16 -0.53,0.13 -0.54,0.1 -0.55,0.08 -0.56,0.04 -0.56,0.02 -0.05,-1.1 c 2.19,0 4.34,-1.1 5.63,-3.24 1.3,-2.14 1.3,-5.03 1.3,-6.92 0,-1.79 0,-4.49 -1.1,-6.68 -1.09,-2.24 -3.28,-3.68 -5.78,-3.68 h 0 c -2.14,0 -4.33,1.04 -5.68,3.34 -1.24,2.19 -1.24,5.23 -1.24,7.02 0,1.94 0,4.63 1.2,6.82 1.34,2.3 3.68,3.34 5.67,3.34 l 0.05,1.1 c -6.22,0 -11.06,-5.43 -11.06,-11.66 0,-6.43 5.18,-11.21 11.01,-11.21 6.03,0 11.06,4.88 11.06,11.21 z"
           id="path3979" /><path
           style="fill:#000000;stroke-width:0"
           d="m 530.88,425.23 -0.09,-0.01 -0.09,-0.01 -0.09,-0.01 -0.09,-0.02 -0.08,-0.01 -0.09,-0.02 -0.08,-0.02 -0.07,-0.02 -0.08,-0.02 -0.07,-0.02 -0.07,-0.03 -0.07,-0.02 -0.07,-0.03 -0.06,-0.03 -0.12,-0.06 -0.12,-0.07 -0.1,-0.07 -0.1,-0.07 -0.1,-0.08 -0.08,-0.08 -0.08,-0.09 -0.07,-0.08 -0.06,-0.09 -0.06,-0.09 -0.06,-0.09 -0.04,-0.09 -0.05,-0.09 -0.03,-0.09 -0.04,-0.09 -0.02,-0.09 -0.03,-0.09 -0.02,-0.09 -0.02,-0.08 -0.01,-0.08 -0.01,-0.08 -0.01,-0.08 0,-0.07 -0.01,-0.07 0,-0.06 c 0,-1.3 0.9,-2.3 2.29,-2.3 1.3,0 2.29,0.85 2.29,2.34 0,3.4 -3.78,5.34 -7.62,5.34 -6.22,0 -10.8,-5.38 -10.8,-11.56 0,-6.38 4.92,-11.31 10.7,-11.31 6.68,0 8.27,5.98 8.27,6.48 0,0.5 -0.49,0.5 -0.65,0.5 -0.44,0 -0.54,-0.2 -0.64,-0.5 -1.45,-4.63 -4.68,-5.23 -6.53,-5.23 -2.64,0 -7.02,2.14 -7.02,10.16 0,8.12 4.08,10.21 6.72,10.21 0.45,0 3.59,-0.05 5.33,-1.84 z"
           id="path3981" /><path
           style="fill:#000000;stroke-width:0"
           d="m 551.59,409.79 0.02,-0.19 0.03,-0.19 0.03,-0.19 0.04,-0.18 0.05,-0.19 0.06,-0.18 0.06,-0.18 0.07,-0.18 0.07,-0.18 0.08,-0.18 0.09,-0.17 0.1,-0.16 0.1,-0.17 0.1,-0.15 0.12,-0.16 0.12,-0.14 0.12,-0.15 0.13,-0.13 0.14,-0.13 0.15,-0.12 0.15,-0.12 0.15,-0.1 0.17,-0.1 0.17,-0.09 0.17,-0.08 0.18,-0.07 0.19,-0.07 0.19,-0.05 0.2,-0.04 0.21,-0.03 0.21,-0.01 0.21,-0.01 c 1.05,0 4.09,0.7 4.09,4.73 v 2.79 h -1.25 v -2.79 c 0,-2.89 -1.24,-3.18 -1.79,-3.18 -1.64,0 -1.84,2.24 -1.84,2.48 v 9.97 c 0,2.09 0,4.03 -1.8,5.88 -1.94,1.94 -4.43,2.74 -6.82,2.74 -4.09,0 -7.53,-2.34 -7.53,-5.63 0,-1.5 1,-2.34 2.3,-2.34 1.39,0 2.29,0.99 2.29,2.29 0,0.59 -0.25,2.24 -2.54,2.29 1.35,1.74 3.78,2.29 5.38,2.29 2.44,0 5.28,-1.94 5.28,-6.38 v -1.84 -1.04 -4.99 c 0,-4.73 -3.59,-6.42 -5.83,-6.42 -2.44,0 -4.48,1.74 -4.48,4.23 0,2.74 2.09,6.88 10.31,7.18 h 0 V 419 c -2.54,-0.15 -6.03,-0.3 -9.17,-1.79 -3.73,-1.69 -4.98,-4.28 -4.98,-6.48 0,-4.03 4.84,-5.28 7.97,-5.28 3.29,0 5.58,2 6.53,4.34 z"
           id="path3983" /><path
           style="fill:#000000;stroke-width:0"
           d="m 568.62,425.93 h 7.12 v 1.54 h -7.12 v 9.17 h -1.25 c -0.05,-4.09 -1.54,-9.42 -6.42,-9.62 v -1.09 h 4.23 v -13.75 c 0,-6.13 4.63,-6.73 6.42,-6.73 3.55,0 4.94,3.54 4.94,6.73 v 2.84 h -1.25 v -2.74 c 0,-3.69 -1.49,-5.58 -3.33,-5.58 -3.34,0 -3.34,4.53 -3.34,5.38 z"
           id="path3985" /><path
           style="fill:#000000;stroke-width:0"
           d="m 587.82,428.02 -6.98,-0.55 v -1.54 c 3.24,0 3.69,-0.31 3.69,-2.75 v -13.39 c 0,-2.25 -0.55,-2.25 -3.88,-2.25 V 406 h 10.65 v 1.54 c -3.28,0 -3.48,0.25 -3.48,2.19 z"
           id="path3987" /><path
           style="fill:#000000;stroke-width:0"
           d="m 588.02,436.68 -0.01,0.15 -0.01,0.15 -0.02,0.14 -0.02,0.13 -0.03,0.14 -0.04,0.13 -0.04,0.13 -0.05,0.12 -0.06,0.12 -0.06,0.11 -0.06,0.11 -0.07,0.11 -0.08,0.1 -0.08,0.1 -0.08,0.09 -0.09,0.09 -0.09,0.09 -0.1,0.07 -0.1,0.08 -0.11,0.07 -0.1,0.06 -0.11,0.06 -0.12,0.06 -0.11,0.05 -0.12,0.04 -0.12,0.04 -0.13,0.03 -0.12,0.03 -0.13,0.02 -0.13,0.01 -0.12,0.01 -0.13,0 c -1.55,0 -2.65,-1.34 -2.65,-2.64 0,-1.34 1.1,-2.64 2.65,-2.64 1.39,0 2.64,1.05 2.64,2.64 z"
           id="path3989" /><path
           style="fill:#000000;stroke-width:0"
           d="m 616.46,416.66 -0.01,0.59 -0.05,0.59 -0.07,0.58 -0.09,0.57 -0.13,0.56 -0.15,0.55 -0.17,0.54 -0.2,0.53 -0.22,0.52 -0.25,0.5 -0.26,0.49 -0.29,0.47 -0.31,0.46 -0.33,0.44 -0.35,0.42 -0.36,0.41 -0.39,0.39 -0.4,0.36 -0.41,0.35 -0.44,0.33 -0.44,0.3 -0.46,0.29 -0.48,0.26 -0.48,0.23 -0.5,0.21 -0.51,0.19 -0.52,0.16 -0.53,0.13 -0.54,0.1 -0.55,0.08 -0.56,0.04 -0.56,0.02 -0.05,-1.1 c 2.19,0 4.34,-1.1 5.63,-3.24 1.3,-2.14 1.3,-5.03 1.3,-6.92 0,-1.79 0,-4.49 -1.1,-6.68 -1.09,-2.24 -3.28,-3.68 -5.78,-3.68 h 0 c -2.14,0 -4.33,1.04 -5.68,3.34 -1.24,2.19 -1.24,5.23 -1.24,7.02 0,1.94 0,4.63 1.2,6.82 1.34,2.3 3.68,3.34 5.67,3.34 l 0.05,1.1 c -6.22,0 -11.05,-5.43 -11.05,-11.66 0,-6.43 5.17,-11.21 11,-11.21 6.03,0 11.06,4.88 11.06,11.21 z"
           id="path3991" /><path
           style="fill:#000000;stroke-width:0"
           d="m 623.48,423.14 v -13.35 c 0,-2.25 -0.55,-2.25 -3.89,-2.25 V 406 h 11.21 v 1.54 c -3.33,0 -3.88,0 -3.88,2.25 v 9.16 c 0,5.18 3.53,7.97 6.72,7.97 3.14,0 3.69,-2.69 3.69,-5.53 v -11.6 c 0,-2.25 -0.55,-2.25 -3.89,-2.25 V 406 h 11.21 v 1.54 c -2.59,0 -3.84,0 -3.88,1.5 v 9.51 c 0,4.29 0,5.83 -1.55,7.63 -0.7,0.84 -2.34,1.84 -5.23,1.84 -3.64,0 -5.98,-2.14 -7.37,-5.23 v 5.23 l -7.03,-0.55 v -1.54 c 3.49,0 3.89,-0.35 3.89,-2.79 z"
           id="path3993" /><path
           style="fill:#000000;stroke-width:0"
           d="m 678.48,418.85 h -1.25 c -1.24,-7.67 -2.39,-11.31 -10.96,-11.31 h -6.62 c -2.34,0 -2.44,0.35 -2.44,2 v 13.3 h 4.48 c 4.83,0 5.38,-1.6 5.38,-5.83 h 1.25 v 13.2 h -1.25 c 0,-4.28 -0.55,-5.83 -5.38,-5.83 h -4.48 v 11.96 c 0,1.64 0.1,1.99 2.44,1.99 h 6.42 c 7.63,0 8.97,-2.74 9.77,-9.67 h 1.24 l -1.39,11.21 h -28.04 v -1.54 h 1.19 c 3.84,0 3.93,-0.55 3.93,-2.34 v -26.1 c 0,-1.8 -0.09,-2.35 -3.93,-2.35 h -1.19 V 406 h 28.74 z"
           id="path3995" /><path
           style="fill:#000000;stroke-width:0"
           d="m 694.3,417.71 0.28,0.36 0.29,0.37 0.3,0.38 0.3,0.38 0.62,0.78 0.3,0.38 0.31,0.38 0.3,0.38 0.3,0.36 0.29,0.36 0.28,0.34 0.14,0.16 0.13,0.16 0.13,0.15 0.13,0.15 0.13,0.14 0.12,0.14 0.11,0.13 0.12,0.13 c 1.54,1.79 3.59,2.54 5.93,2.59 v 1.54 h -8.87 v -1.54 c 1.04,-0.11 1.45,-0.75 1.45,-1.55 0,-0.79 -0.5,-1.44 -0.75,-1.74 l -3.09,-3.89 -3.89,5.04 c -0.44,0.49 -0.44,0.59 -0.44,0.89 0,0.75 0.74,1.2 1.74,1.25 v 1.54 h -10.11 v -1.54 c 3.48,0 3.53,-0.05 5.88,-3.04 l 4.93,-6.43 c -2.34,-2.99 -2.34,-3.09 -4.69,-5.93 -2.39,-2.89 -5.32,-2.99 -6.37,-2.99 V 406 h 8.87 v 1.54 c -1.1,0.16 -1.45,0.8 -1.45,1.55 0,1.09 1.45,2.74 4.48,6.32 1.45,-1.94 1.85,-2.48 3.79,-4.98 0.4,-0.54 1.05,-1.34 1.05,-1.64 0,-0.45 -0.45,-1.2 -1.8,-1.25 V 406 h 10.16 v 1.54 c -2.68,0 -3.58,0.1 -4.73,1.55 z"
           id="path3997" /><path
           style="fill:#000000;stroke-width:0"
           d="m 714.72,408.94 0.69,0.65 c -0.69,1.04 -0.69,1.09 -0.69,2.09 v 11.11 c 1.44,2.54 3.88,3.98 6.43,3.98 3.63,0 6.67,-4.38 6.67,-10.01 0,-6.03 -3.49,-10.21 -7.17,-10.21 -2,0 -3.89,0.99 -5.24,3.04 l -0.69,-0.65 c 0.25,-0.8 2.34,-3.49 6.12,-3.49 5.93,0 11.11,4.88 11.11,11.31 0,6.33 -4.83,11.26 -10.41,11.26 -3.88,0 -5.98,-2.2 -6.97,-3.29 v 3.29 l -7.17,-0.55 v -1.54 c 3.53,0 3.88,-0.31 3.88,-2.5 v -23.31 c 0,-2.24 -0.55,-2.24 -3.88,-2.24 v -1.54 h 11.2 v 1.54 c -3.33,0 -3.88,0 -3.88,2.24 v 8.37 z"
           id="path3999" /><path
           style="fill:#000000;stroke-width:0"
           d="m 742.57,409.89 v 7.66 c 0,4.94 2.09,9.37 5.88,9.37 0.34,0 0.45,0 0.54,-0.05 -0.15,-0.05 -1.14,-0.65 -1.14,-1.94 0,-1.39 1.05,-2.14 2.14,-2.14 0.9,0 2.14,0.59 2.14,2.19 0,1.59 -1.54,3.04 -3.68,3.04 -3.64,0 -5.43,-3.34 -6.13,-5.48 v 5.48 l -6.92,-0.55 v -1.54 c 3.48,0 3.88,-0.35 3.88,-2.79 v -13.35 c 0,-2.25 -0.55,-2.25 -3.88,-2.25 V 406 h 12 v 1.54 h -1.05 c -3.68,0 -3.78,0.55 -3.78,2.35 z"
           id="path4001" /><path
           style="fill:#000000;stroke-width:0"
           d="m 772.43,417.51 0.05,0 0.05,0 0.04,0 0.05,0 0.05,0 0.04,0 0.04,0 0.04,0 0.04,0 0.04,0 0.04,0 0.04,0 0.07,0.01 0.06,0 0.06,0.01 0.06,0.01 0.05,0.01 0.05,0.01 0.05,0.02 0.04,0.02 0.04,0.02 0.03,0.02 0.03,0.02 0.03,0.03 0.02,0.04 0.03,0.03 0.02,0.04 0.01,0.05 0.01,0.02 0.01,0.03 0.01,0.02 0,0.03 0.01,0.03 0,0.03 0.01,0.03 0,0.03 0,0.03 0.01,0.04 0,0.03 0,0.04 0.01,0.04 0,0.04 0,0.04 0,0.04 0,0.04 0,0.05 0,0.05 0,0.04 c 0,4.93 -2.69,9.77 -8.91,9.77 -5.78,0 -10.36,-5.14 -10.36,-11.36 0,-6.67 5.22,-11.51 10.95,-11.51 6.08,0 8.32,5.53 8.32,6.48 0,0.5 -0.4,0.6 -0.65,0.6 -0.44,0 -0.54,-0.3 -0.64,-0.7 -1.75,-5.13 -6.23,-5.13 -6.73,-5.13 -2.49,0 -4.48,1.49 -5.63,3.34 -1.49,2.39 -1.49,5.67 -1.49,7.47 l 0.05,1.04 c 0.3,7.43 4.48,8.67 6.18,8.67 5.13,0 5.63,-6.72 5.63,-8.67 h -11.81 l -0.05,-1.04 z"
           id="path4003" /><path
           style="fill:#000000;stroke-width:0"
           d="m 785.36,415.66 0.11,-0.02 0.13,-0.02 0.14,-0.03 0.16,-0.03 0.17,-0.04 0.18,-0.05 0.18,-0.05 0.2,-0.05 0.21,-0.06 0.21,-0.07 0.21,-0.08 0.22,-0.09 0.22,-0.09 0.22,-0.1 0.22,-0.12 0.22,-0.12 0.22,-0.13 0.21,-0.14 0.2,-0.15 0.2,-0.16 0.19,-0.18 0.18,-0.19 0.17,-0.2 0.16,-0.21 0.14,-0.22 0.07,-0.12 0.06,-0.12 0.06,-0.13 0.05,-0.12 0.05,-0.13 0.05,-0.14 0.04,-0.14 0.03,-0.14 0.03,-0.15 0.03,-0.15 0.02,-0.15 0.01,-0.16 0.01,-0.16 0,-0.17 c 0,-2.54 -1.74,-4.53 -5.63,-4.53 -4.18,0 -5.98,2.84 -6.92,7.07 -0.15,0.65 -0.2,0.85 -0.7,0.85 -0.64,0 -0.64,-0.35 -0.64,-1.25 v -6.57 c 0,-0.85 0,-1.2 0.54,-1.2 0.25,0 0.3,0.05 1.25,1 0.09,0.1 0.09,0.2 0.99,1.14 2.19,-2.09 4.44,-2.14 5.48,-2.14 5.73,0 8.02,3.34 8.02,6.93 0,2.64 -1.49,4.13 -2.09,4.73 -1.64,1.59 -3.59,1.99 -5.68,2.39 -2.79,0.55 -6.13,1.2 -6.13,4.09 0,1.74 1.3,3.78 5.58,3.78 5.48,0 5.73,-4.48 5.83,-6.03 0.05,-0.45 0.5,-0.45 0.6,-0.45 0.65,0 0.65,0.25 0.65,1.2 v 5.03 c 0,0.85 0,1.2 -0.55,1.2 -0.25,0 -0.35,0 -0.99,-0.6 -0.16,-0.2 -0.65,-0.65 -0.85,-0.8 -1.9,1.4 -3.94,1.4 -4.69,1.4 -6.08,0 -7.96,-3.34 -7.96,-6.13 0,-1.74 0.79,-3.14 2.13,-4.23 1.6,-1.3 2.99,-1.6 6.58,-2.3 z"
           id="path4005" /><path
           style="fill:#000000;stroke-width:0"
           d="m 805.36,415.66 0.11,-0.02 0.13,-0.02 0.14,-0.03 0.16,-0.03 0.17,-0.04 0.18,-0.05 0.18,-0.05 0.2,-0.05 0.21,-0.06 0.21,-0.07 0.21,-0.08 0.22,-0.09 0.22,-0.09 0.22,-0.1 0.22,-0.12 0.22,-0.12 0.22,-0.13 0.21,-0.14 0.2,-0.15 0.2,-0.16 0.19,-0.18 0.18,-0.19 0.17,-0.2 0.16,-0.21 0.14,-0.22 0.07,-0.12 0.06,-0.12 0.06,-0.13 0.05,-0.12 0.05,-0.13 0.05,-0.14 0.04,-0.14 0.03,-0.14 0.03,-0.15 0.03,-0.15 0.02,-0.15 0.01,-0.16 0.01,-0.16 0,-0.17 c 0,-2.54 -1.74,-4.53 -5.63,-4.53 -4.18,0 -5.98,2.84 -6.92,7.07 -0.15,0.65 -0.2,0.85 -0.7,0.85 -0.64,0 -0.64,-0.35 -0.64,-1.25 v -6.57 c 0,-0.85 0,-1.2 0.54,-1.2 0.25,0 0.3,0.05 1.25,1 0.09,0.1 0.09,0.2 0.99,1.14 2.19,-2.09 4.44,-2.14 5.48,-2.14 5.73,0 8.02,3.34 8.02,6.93 0,2.64 -1.49,4.13 -2.09,4.73 -1.64,1.59 -3.59,1.99 -5.68,2.39 -2.79,0.55 -6.13,1.2 -6.13,4.09 0,1.74 1.3,3.78 5.58,3.78 5.48,0 5.73,-4.48 5.83,-6.03 0.05,-0.45 0.5,-0.45 0.6,-0.45 0.65,0 0.65,0.25 0.65,1.2 v 5.03 c 0,0.85 0,1.2 -0.55,1.2 -0.25,0 -0.35,0 -0.99,-0.6 -0.16,-0.2 -0.65,-0.65 -0.85,-0.8 -1.9,1.4 -3.94,1.4 -4.69,1.4 -6.08,0 -7.96,-3.34 -7.96,-6.13 0,-1.74 0.79,-3.14 2.13,-4.23 1.6,-1.3 2.99,-1.6 6.58,-2.3 z"
           id="path4007" /><path
           style="fill:#000000;stroke-width:0"
           d="m 823.82,428.02 -6.98,-0.55 v -1.54 c 3.24,0 3.69,-0.31 3.69,-2.75 v -13.39 c 0,-2.25 -0.55,-2.25 -3.88,-2.25 V 406 h 10.65 v 1.54 c -3.28,0 -3.48,0.25 -3.48,2.19 z"
           id="path4009" /><path
           style="fill:#000000;stroke-width:0"
           d="m 824.02,436.68 -0.01,0.15 -0.01,0.15 -0.02,0.14 -0.02,0.13 -0.03,0.14 -0.04,0.13 -0.04,0.13 -0.05,0.12 -0.06,0.12 -0.06,0.11 -0.06,0.11 -0.07,0.11 -0.08,0.1 -0.08,0.1 -0.08,0.09 -0.09,0.09 -0.09,0.09 -0.1,0.07 -0.1,0.08 -0.11,0.07 -0.1,0.06 -0.11,0.06 -0.12,0.06 -0.11,0.05 -0.12,0.04 -0.12,0.04 -0.13,0.03 -0.12,0.03 -0.13,0.02 -0.13,0.01 -0.12,0.01 -0.13,0 c -1.55,0 -2.65,-1.34 -2.65,-2.64 0,-1.34 1.1,-2.64 2.65,-2.64 1.39,0 2.64,1.05 2.64,2.64 z"
           id="path4011" /><path
           style="fill:#000000;stroke-width:0"
           d="m 852.46,416.66 -0.01,0.59 -0.05,0.59 -0.07,0.58 -0.09,0.57 -0.13,0.56 -0.15,0.55 -0.17,0.54 -0.2,0.53 -0.22,0.52 -0.25,0.5 -0.26,0.49 -0.29,0.47 -0.31,0.46 -0.33,0.44 -0.35,0.42 -0.36,0.41 -0.39,0.39 -0.4,0.36 -0.41,0.35 -0.44,0.33 -0.44,0.3 -0.46,0.29 -0.48,0.26 -0.48,0.23 -0.5,0.21 -0.51,0.19 -0.52,0.16 -0.53,0.13 -0.54,0.1 -0.55,0.08 -0.56,0.04 -0.56,0.02 -0.05,-1.1 c 2.19,0 4.34,-1.1 5.63,-3.24 1.3,-2.14 1.3,-5.03 1.3,-6.92 0,-1.79 0,-4.49 -1.1,-6.68 -1.09,-2.24 -3.28,-3.68 -5.78,-3.68 h 0 c -2.14,0 -4.33,1.04 -5.68,3.34 -1.24,2.19 -1.24,5.23 -1.24,7.02 0,1.94 0,4.63 1.2,6.82 1.34,2.3 3.68,3.34 5.67,3.34 l 0.05,1.1 c -6.22,0 -11.05,-5.43 -11.05,-11.66 0,-6.43 5.17,-11.21 11,-11.21 6.03,0 11.06,4.88 11.06,11.21 z"
           id="path4013" /><path
           style="fill:#000000;stroke-width:0"
           d="m 859.48,423.14 v -13.35 c 0,-2.25 -0.55,-2.25 -3.89,-2.25 V 406 h 11.21 v 1.54 c -3.33,0 -3.88,0 -3.88,2.25 v 9.16 c 0,5.18 3.53,7.97 6.72,7.97 3.14,0 3.69,-2.69 3.69,-5.53 v -11.6 c 0,-2.25 -0.55,-2.25 -3.89,-2.25 V 406 h 11.21 v 1.54 c -2.59,0 -3.84,0 -3.88,1.5 v 9.51 c 0,4.29 0,5.83 -1.55,7.63 -0.7,0.84 -2.34,1.84 -5.23,1.84 -3.64,0 -5.98,-2.14 -7.37,-5.23 v 5.23 l -7.03,-0.55 v -1.54 c 3.49,0 3.89,-0.35 3.89,-2.79 z"
           id="path4015" /></g>    </g>
  </g>
</svg>
