<?xml version="1.0" encoding="UTF-8" standalone="no"?>
<!--
  Copyright (c) 2010, 2022 Contributors to the Eclipse Foundation

  See the NOTICE file(s) distributed with this work for additional
  information regarding copyright ownership.

  This program and the accompanying materials are made available under the terms
  of the MIT License which is available at https://opensource.org/licenses/MIT

  SPDX-License-Identifier: MIT
-->
<!-- Created with Inkscape (http://www.inkscape.org/) -->

<svg
   xmlns:svg="http://www.w3.org/2000/svg"
   xmlns="http://www.w3.org/2000/svg"
   version="1.1"
   width="400"
   height="200"
   id="sun_moon">
  <defs
     id="defs4" />
  <g
     transform="translate(0,-852.36218)"
     id="layer1">
    <g
       id="sun">
      <path
         d="m 106.06602,69.185242 a 43.436559,43.436559 0 1 1 -86.873118,0 43.436559,43.436559 0 1 1 86.873118,0 z"
         transform="matrix(1.1380045,0,0,1.1380045,28.727393,873.62907)"
         id="sun-circle"
         style="fill:#ffff00;fill-opacity:1;fill-rule:evenodd;stroke:#ff0000;stroke-width:1px;stroke-linecap:butt;stroke-linejoin:miter;stroke-opacity:1" />
      <path
         d="m 10.624039,951.86218 28.751922,0"
         id="sun-ray-w"
         style="fill:none;stroke:#ff0000;stroke-width:1.02250886px;stroke-linecap:butt;stroke-linejoin:miter;stroke-opacity:1" />
      <path
         d="m 160.51512,951.85093 28.96975,0"
         id="sun-ray-e"
         style="fill:none;stroke:#ff0000;stroke-width:1.0263747px;stroke-linecap:butt;stroke-linejoin:miter;stroke-opacity:1" />
      <path
         d="m 100.51125,862.87731 0,28.96975"
         id="sun-ray-n"
         style="fill:none;stroke:#ff0000;stroke-width:1.02637482px;stroke-linecap:butt;stroke-linejoin:miter;stroke-opacity:1" />
      <path
         d="m 100.51319,1012.8754 0,28.9735"
         id="sun-ray-s"
         style="fill:none;stroke:#ff0000;stroke-width:1.02644193px;stroke-linecap:butt;stroke-linejoin:miter;stroke-opacity:1" />
      <path
         d="M 36.463665,1015.2464 56.794344,994.91576"
         id="sun-ray-sw"
         style="fill:none;stroke:#ff0000;stroke-width:1.02250886px;stroke-linecap:butt;stroke-linejoin:miter;stroke-opacity:1" />
      <path
         d="m 142.44471,909.24948 20.48471,-20.4847"
         id="sun-ray-ne"
         style="fill:none;stroke:#ff0000;stroke-width:1.0263747px;stroke-linecap:butt;stroke-linejoin:miter;stroke-opacity:1" />
      <path
         d="m 37.101716,888.76478 20.484707,20.4847"
         id="sun-ray-nw"
         style="fill:none;stroke:#ff0000;stroke-width:1.02637482px;stroke-linecap:butt;stroke-linejoin:miter;stroke-opacity:1" />
      <path
         d="m 143.16775,994.82807 20.48736,20.48733"
         id="sun-ray-se"
         style="fill:none;stroke:#ff0000;stroke-width:1.02644193px;stroke-linecap:butt;stroke-linejoin:miter;stroke-opacity:1" />
    </g>
    <path
       d="m 299.431,952.36218 c 0,27.29998 10.61898,40.056 30.569,49.43102 -27.29999,0 -49.431,-22.13104 -49.431,-49.43102 0,-27.29999 22.13101,-49.431 49.431,-49.431 -20.01252,9.4375 -30.569,22.13101 -30.569,49.431 z"
       id="moon"
       style="fill:#ffff00;fill-opacity:1;fill-rule:evenodd;stroke:#000000;stroke-width:1.13800454px;stroke-linecap:butt;stroke-linejoin:miter;stroke-opacity:1" />
  </g>
</svg>
