<?xml version="1.0" encoding="UTF-8" standalone="no"?>
<!--
  Copyright (c) 2022, 2024 Contributors to the Eclipse Foundation

  See the NOTICE file(s) distributed with this work for additional
  information regarding copyright ownership.

  This program and the accompanying materials are made available under the terms
  of the MIT License which is available at https://opensource.org/licenses/MIT

  SPDX-License-Identifier: MIT
-->

<svg
   viewBox="0 0 391.92999 154.27499"
   version="1.1"
   id="eclipse-escet-logo"
   width="391.92999"
   height="154.27499"
   xmlns="http://www.w3.org/2000/svg"
   xmlns:svg="http://www.w3.org/2000/svg">
  <defs
     id="defs" />
  <path
     id="gear"
     style="fill:#ffd700;fill-opacity:1;stroke:none;stroke-width:10.0001;stroke-opacity:1"
     d="m 69.93035,2 a 5.8600572,5.8600572 0 0 0 -5.56646,4.687546 l -2.03127,11.816522 a 4.3300422,4.3300422 0 0 0 -0.0586,1.132823 59.030576,59.030576 0 0 0 -15.273586,6.347719 4.4400433,4.4400433 0 0 0 -0.859383,-0.781257 l -9.804779,-6.914131 a 5.8700573,5.8700573 0 0 0 -7.246163,0.625006 L 18.894696,29.109641 a 5.8700573,5.8700573 0 0 0 -0.605476,7.246163 l 6.914131,9.804784 a 4.6600455,4.6600455 0 0 0 0.761727,0.839848 59.120577,59.120577 0 0 0 -6.328188,15.293118 4.3700426,4.3700426 0 0 0 -1.132823,0.0391 L 6.668014,64.383422 A 5.8600572,5.8600572 0 0 0 2,69.930351 v 14.414201 a 5.8600572,5.8600572 0 0 0 4.668014,5.546934 l 11.836053,2.0508 a 4.6600455,4.6600455 0 0 0 1.132823,0.059 59.010576,59.010576 0 0 0 6.328188,15.273584 4.5400443,4.5400443 0 0 0 -0.761727,0.85941 l -6.914131,9.78525 a 5.8600572,5.8600572 0 0 0 0.605476,7.24616 l 10.195413,10.19542 a 5.8600572,5.8600572 0 0 0 7.246163,0.625 l 9.804784,-6.91413 a 4.4400433,4.4400433 0 0 0 0.859378,-0.7813 59.080576,59.080576 0 0 0 15.429838,6.36725 4.9500483,4.9500483 0 0 0 0,1.75783 l 1.816425,10.52745 a 6.6700651,6.6700651 0 0 0 6.347717,5.33208 h 13.086065 a 6.6700651,6.6700651 0 0 0 6.328187,-5.33208 l 1.835949,-10.52745 a 5.020049,5.020049 0 0 0 0,-1.75783 59.080576,59.080576 0 0 0 15.429845,-6.36725 4.4400433,4.4400433 0 0 0 0.8594,0.7813 l 9.78525,6.91413 a 5.8600572,5.8600572 0 0 0 7.24617,-0.625 l 10.19541,-10.19542 a 5.8600572,5.8600572 0 0 0 0.62501,-7.24616 l -6.91413,-9.80479 a 4.5500444,4.5500444 0 0 0 -0.78131,-0.83981 59.020576,59.020576 0 0 0 6.34771,-15.273584 4.6300452,4.6300452 0 0 0 1.13282,-0.059 l 11.81653,-2.0508 a 5.8700573,5.8700573 0 0 0 4.68755,-5.546934 V 69.930351 a 5.8700573,5.8700573 0 0 0 -4.68751,-5.546929 l -11.81653,-2.050801 a 4.3400423,4.3400423 0 0 0 -1.13282,-0.0391 59.020576,59.020576 0 0 0 -6.34771,-15.293118 4.6700456,4.6700456 0 0 0 0.78131,-0.839848 l 6.91413,-9.804784 a 5.8600572,5.8600572 0 0 0 -0.62501,-7.246163 l -10.19546,-10.19538 a 5.8600572,5.8600572 0 0 0 -7.24617,-0.625006 l -9.78525,6.914131 a 4.4400433,4.4400433 0 0 0 -0.8594,0.781257 59.080576,59.080576 0 0 0 -15.27359,-6.347719 4.4800437,4.4800437 0 0 0 -0.059,-1.132823 L 89.911014,6.687546 A 5.8600572,5.8600572 0 0 0 84.344554,2 Z" />
  <path
     d="M 87.193402,106.94127 H 49.81029 V 48.69951 H 87.193402 V 59.958578 H 62.564478 v 12.23919 H 82.198233 V 83.458509 H 62.564478 v 12.217732 h 24.628924 z"
     style="font-weight:bold;stroke-width:8.58288"
     id="e" />
  <path
     d="M 106.04064,67.097364 H 94.14406 l -0.271477,-8.26842 -9.083083,3.4e-5 v -8.984287 l 9.05839,-0.02403 -1.54e-4,-10.662609 4.788449,-0.296195 5.923685,8.88571 z"
     id="hammer"
     style="stroke-width:4.65002" />
  <path
     d="m 82.103633,106.94127 c 0.618396,1.42551 1.454275,2.7463 2.478032,3.91514 1.076474,1.25424 2.384333,2.28951 3.852169,3.0493 1.891976,1.01447 4.010206,1.53288 6.156819,1.50679 3.943113,0.0129 7.707337,-1.64427 10.361207,-4.56065 l 0.19028,-0.19028 c 1.00661,-1.0837 1.81469,-2.33608 2.38728,-3.69983 l -9.349621,-0.007 -2.707487,-0.002 -2.073126,-0.002 c -1.247814,-1.27962 -2.170345,-2.84001 -2.690107,-4.5501 -0.07467,-0.36219 -0.117843,-0.73031 -0.127628,-1.10011 0.295595,-2.14831 1.290067,-4.139624 2.829845,-5.666613 l 10.322514,0.0085 3.80772,0.0031 c -0.44597,-1.033637 -1.03016,-2.001889 -1.73676,-2.878192 l -0.38108,-0.508107 c -2.05432,-2.482796 -4.90213,-4.181039 -8.063032,-4.808225 -0.913228,-0.177923 -1.841011,-0.27079 -2.771413,-0.277227 -3.542979,-0.0085 -6.940848,1.406717 -9.431111,3.926918 -1.297182,1.309679 -2.336475,2.851645 -3.063702,4.545477 0.0085,11.295409 0,0 0.0085,11.295409 z"
     id="wrench"
     style="stroke-width:5.99239" />
  <g
     aria-label="Eclipse"
     id="text-eclipse"
     style="font-size:56.0005px;line-height:1.25;-inkscape-font-specification:'sans-serif, Normal';stroke-width:10.0001">
    <path
       d="M 201.93196,63.938389 H 175.1075 V 23.223182 h 26.82446 v 4.812543 h -21.41035 v 11.156349 h 21.41035 v 4.812543 h -21.41035 v 15.121229 h 21.41035 z"
       id="text-eclipse1" />
    <path
       d="m 232.69395,62.024309 q -2.57033,1.23048 -4.89457,1.91408 -2.2969,0.6836 -4.89458,0.6836 -3.30862,0 -6.07036,-0.95704 -2.76175,-0.984384 -4.73051,-2.953151 -1.99612,-1.968768 -3.08988,-4.976607 -1.09376,-3.00784 -1.09376,-7.027407 0,-7.492254 4.1016,-11.757917 4.12895,-4.265663 10.88291,-4.265663 2.62503,0 5.14067,0.738288 2.543,0.738287 4.64848,1.804703 v 5.714895 h -0.27344 q -2.35158,-1.832048 -4.86723,-2.816432 -2.4883,-0.984383 -4.86723,-0.984383 -4.37504,0 -6.91803,2.953151 -2.51565,2.925807 -2.51565,8.613358 0,5.523487 2.46096,8.503982 2.48831,2.953152 6.97272,2.953152 1.55861,0 3.1719,-0.41016 1.6133,-0.41016 2.89847,-1.066416 1.1211,-0.574224 2.10549,-1.203136 0.98438,-0.656256 1.5586,-1.121104 h 0.27344 z"
       id="text-eclipse2" />
    <path
       d="m 244.47922,63.938389 h -5.14067 V 21.391134 h 5.14067 z"
       id="text-eclipse3" />
    <path
       d="m 260.17467,28.281821 h -5.79693 v -5.332079 h 5.79693 z m -0.32813,35.656568 h -5.14067 V 33.395148 h 5.14067 z"
       id="text-eclipse4" />
    <path
       d="m 296.89765,48.297624 q 0,3.718783 -1.06641,6.808655 -1.06642,3.062527 -3.00784,5.195359 -1.8047,2.023455 -4.26566,3.144559 -2.43362,1.09376 -5.16802,1.09376 -2.37893,0 -4.32035,-0.519536 -1.91408,-0.519536 -3.91019,-1.613296 v 12.796989 h -5.14067 V 33.395148 h 5.14067 v 3.199247 q 2.0508,-1.722672 4.59379,-2.87112 2.57034,-1.175791 5.4688,-1.175791 5.52349,0 8.58601,4.183631 3.08987,4.156287 3.08987,11.566509 z m -5.30473,0.13672 q 0,-5.523487 -1.88674,-8.257886 -1.88673,-2.734399 -5.79692,-2.734399 -2.21487,0 -4.45707,0.957039 -2.24221,0.95704 -4.29301,2.515648 v 17.308748 q 2.18752,0.984384 3.74613,1.339856 1.58595,0.355472 3.58206,0.355472 4.29301,0 6.69928,-2.898464 2.40627,-2.898463 2.40627,-8.586014 z"
       id="text-eclipse5" />
    <path
       d="m 326.72995,55.133623 q 0,4.183631 -3.47269,6.863342 -3.44534,2.679712 -9.43368,2.679712 -3.39065,0 -6.23443,-0.792976 -2.81643,-0.82032 -4.73051,-1.77736 v -5.769583 h 0.27344 q 2.43361,1.832048 5.41411,2.925808 2.9805,1.066416 5.71489,1.066416 3.39066,0 5.30474,-1.09376 1.91408,-1.09376 1.91408,-3.445343 0,-1.804704 -1.03907,-2.7344 -1.03907,-0.929696 -3.99223,-1.585951 -1.09376,-0.246096 -2.87112,-0.574224 -1.75001,-0.328128 -3.19924,-0.710944 -4.01957,-1.066416 -5.7149,-3.117215 -1.66798,-2.078144 -1.66798,-5.085983 0,-1.886736 0.76563,-3.55472 0.79298,-1.667983 2.37893,-2.980495 1.53126,-1.285168 3.88285,-2.023455 2.37892,-0.765632 5.30473,-0.765632 2.7344,0 5.52349,0.6836 2.81643,0.656255 4.67582,1.613295 v 5.496143 h -0.27344 q -1.96877,-1.449232 -4.7852,-2.433615 -2.81643,-1.011728 -5.52349,-1.011728 -2.81643,0 -4.75785,1.093759 -1.94142,1.066416 -1.94142,3.199248 0,1.886735 1.17579,2.843775 1.14845,0.95704 3.71878,1.558608 1.42189,0.328128 3.1719,0.656256 1.77736,0.328128 2.95316,0.601568 3.58206,0.820319 5.52348,2.816431 1.94143,2.023455 1.94143,5.359423 z"
       id="text-eclipse6" />
    <path
       d="m 359.65213,49.199976 h -22.50411 q 0,2.816431 0.84767,4.921919 0.84766,2.078144 2.32423,3.417999 1.42189,1.312512 3.36332,1.968768 1.96876,0.656256 4.32035,0.656256 3.11721,0 6.26177,-1.23048 3.17191,-1.257824 4.51176,-2.46096 h 0.27344 v 5.605519 q -2.59768,1.09376 -5.30473,1.832048 -2.70706,0.738288 -5.68755,0.738288 -7.60164,0 -11.8673,-4.101599 -4.26566,-4.128944 -4.26566,-11.70323 0,-7.492254 4.07425,-11.894637 4.1016,-4.402383 10.77354,-4.402383 6.17974,0 9.51571,3.609407 3.36331,3.609407 3.36331,10.253998 z m -5.00395,-3.937535 q -0.0274,-4.046911 -2.0508,-6.261775 -1.99611,-2.214863 -6.09771,-2.214863 -4.12895,0 -6.5899,2.433615 -2.43362,2.433616 -2.76175,6.043023 z"
       id="text-eclipse7" />
  </g>
  <g
     aria-label="ESCET"
     id="text-escet"
     style="font-size:56.0005px;line-height:1.25;-inkscape-font-specification:'sans-serif, Normal';stroke-width:10.0001">
    <path
       d="M 204.55698,132.09122 H 175.1075 V 91.37601 h 29.44948 v 7.87507 H 185.5529 v 7.02741 h 17.63688 v 7.87507 H 185.5529 v 10.06259 h 19.00408 z"
       style="font-weight:bold"
       id="text-escet1" />
    <path
       d="m 245.95579,119.29423 q 0,6.01568 -5.11333,9.78915 -5.08598,3.74612 -13.83606,3.74612 -5.05864,0 -8.83211,-0.875 -3.74613,-0.90235 -7.02741,-2.26955 v -9.76181 h 1.14845 q 3.25393,2.59768 7.2735,3.99222 4.04691,1.39455 7.7657,1.39455 0.95704,0 2.51564,-0.16407 1.55861,-0.16406 2.54299,-0.54688 1.20314,-0.49219 1.96877,-1.23048 0.79298,-0.73828 0.79298,-2.18752 0,-1.33985 -1.14845,-2.29689 -1.1211,-0.98439 -3.30862,-1.50392 -2.2969,-0.54688 -4.86723,-1.01173 -2.543,-0.49219 -4.7852,-1.23048 -5.14067,-1.66798 -7.41023,-4.51176 -2.2422,-2.87112 -2.2422,-7.10944 0,-5.687547 5.08598,-9.269611 5.11333,-3.609407 13.12512,-3.609407 4.01956,0 7.92976,0.792976 3.93753,0.765632 6.80865,1.941424 v 9.378988 h -1.1211 q -2.46096,-1.96877 -6.04303,-3.281278 -3.55472,-1.339856 -7.2735,-1.339856 -1.31251,0 -2.62502,0.191408 -1.28517,0.164064 -2.48831,0.656256 -1.06641,0.41016 -1.83204,1.25782 -0.76564,0.82032 -0.76564,1.88674 0,1.6133 1.23048,2.4883 1.23048,0.84767 4.64848,1.55861 2.24221,0.46485 4.29301,0.90235 2.07814,0.43751 4.45707,1.20314 4.67582,1.53126 6.89069,4.18363 2.24221,2.62502 2.24221,6.836 z"
       style="font-weight:bold"
       id="text-escet2" />
    <path
       d="m 271.54976,132.88419 q -4.5391,0 -8.3946,-1.33985 -3.82816,-1.33986 -6.58991,-3.99223 -2.76174,-2.65236 -4.293,-6.61724 -1.50392,-3.96488 -1.50392,-9.16024 0,-4.83989 1.44923,-8.77742 1.44923,-3.937538 4.21097,-6.753969 2.65237,-2.707056 6.56256,-4.183631 3.93754,-1.476576 8.58602,-1.476576 2.57033,0 4.62113,0.300784 2.07815,0.27344 3.82816,0.738288 1.83205,0.519536 3.30862,1.175792 1.50392,0.628912 2.62503,1.175791 v 9.871181 h -1.20314 q -0.76563,-0.65625 -1.94142,-1.55861 -1.14845,-0.90235 -2.62502,-1.77736 -1.50392,-0.875004 -3.25394,-1.476572 -1.75002,-0.601568 -3.74613,-0.601568 -2.21486,0 -4.21097,0.710944 -1.99611,0.6836 -3.69144,2.296896 -1.6133,1.55861 -2.62502,4.12894 -0.98439,2.57034 -0.98439,6.23443 0,3.82816 1.06642,6.3985 1.09376,2.57033 2.7344,4.04691 1.66798,1.50392 3.71878,2.16017 2.0508,0.62892 4.04691,0.62892 1.91408,0 3.77347,-0.57423 1.88674,-0.57422 3.47269,-1.5586 1.33986,-0.79298 2.4883,-1.69533 1.14845,-0.90235 1.88674,-1.55861 h 1.09376 v 9.73446 q -1.53127,0.6836 -2.92581,1.28517 -1.39454,0.60157 -2.92581,1.03907 -1.99611,0.57422 -3.74612,0.87501 -1.75002,0.30078 -4.81255,0.30078 z"
       style="font-weight:bold"
       id="text-escet3" />
    <path
       d="M 323.12053,132.09122 H 293.67105 V 91.37601 h 29.44948 v 7.87507 h -19.00407 v 7.02741 h 17.63687 v 7.87507 h -17.63687 v 10.06259 h 19.00407 z"
       style="font-weight:bold"
       id="text-escet4" />
    <path
       d="M 363.78106,99.25108 H 351.0661 v 32.84014 H 340.56601 V 99.25108 h -12.71496 v -7.87507 h 35.93001 z"
       style="font-weight:bold"
       id="text-escet5" />
  </g>
  <g
     aria-label="TM"
     id="text-tm"
     style="font-size:14.3785px;line-height:1.25;-inkscape-font-specification:'sans-serif, Normal';stroke-width:7.1893">
    <path
       d="m 377.34878,93.398224 h -3.26465 v 8.431926 h -2.69597 v -8.431926 h -3.26465 v -2.021977 h 9.22527 z"
       style="font-weight:bold"
       id="text-tm1" />
    <path
       d="m 389.92997,101.83015 h -2.68193 v -6.999693 l -1.93773,4.542427 h -1.86049 l -1.93773,-4.542427 v 6.999693 h -2.54151 V 91.376247 h 3.13125 l 2.35195,5.244502 2.34493,-5.244502 h 3.13126 z"
       style="font-weight:bold"
       id="text-tm2" />
  </g>
</svg>
