<!--
  Copyright (c) 2022, 2024 Contributors to the Eclipse Foundation

  See the NOTICE file(s) distributed with this work for additional
  information regarding copyright ownership.

  This program and the accompanying materials are made available under the terms
  of the MIT License which is available at https://opensource.org/licenses/MIT

  SPDX-License-Identifier: MIT
-->

<svg viewBox="0 0 16 16" xmlns="http://www.w3.org/2000/svg"><path d="m12.28592 11.7143-5.7912-5.79058a2.50375 2.50375 0 0 0 .16958-.7544 2.14905 2.14905 0 0 0 -.09474-.81438 2.11972 2.11972 0 0 0 -.54871-.90431 2.32771 2.32771 0 0 0 -1.76079-.68447h-.04491a2.104 2.104 0 0 0 -.71829.15488l1.10239 1.10414.31921.31976.24445.24481a1.864 1.864 0 0 1 -.21948.85435 1.04314 1.04314 0 0 1 -.11475.14488 1.64822 1.64822 0 0 1 -1.00259.33474l-1.21709-1.21904-.44895-.44968a2.07386 2.07386 0 0 0 -.13469.54457l-.015.10493a2.33671 2.33671 0 0 0 .38407 1.51882 2.50928 2.50928 0 0 0 .29431.35975 2.20549 2.20549 0 0 0 1.57626.6495 2.45325 2.45325 0 0 0 .89789-.17485l4.79359 4.79628 1.20212 1.19909h.6684l.66343-.6645v-.6695zm-6.53561-2.806 1.3662 1.3662-2.98759 2.9876h-.92334l-.45037-.45038v-.91582zm8.24969-3.00261-1.80906 1.80906-1.29862-1.21606-1.38122 1.38123-1.3662-1.3662 1.37371-1.38123-1.62144-1.62139.68312-.7732 2.252.45042z"/></svg>
