<?xml version="1.0" encoding="UTF-8" standalone="no"?>
<!--
  Copyright (c) 2022, 2024 Contributors to the Eclipse Foundation

  See the NOTICE file(s) distributed with this work for additional
  information regarding copyright ownership.

  This program and the accompanying materials are made available under the terms
  of the MIT License which is available at https://opensource.org/licenses/MIT

  SPDX-License-Identifier: MIT
-->

<svg
   viewBox="0 0 16 16"
   version="1.1"
   width="16"
   height="16"
   xmlns="http://www.w3.org/2000/svg"
   xmlns:svg="http://www.w3.org/2000/svg">
  <path
     id="gear"
     style="fill:#009fbf;fill-opacity:1;stroke-width:1.06473"
     d="M 7.2326497,0 A 0.62392937,0.62392945 0 0 0 6.63998,0.49909032 L 6.4237075,1.7572139 A 0.46102631,0.46102637 0 0 0 6.4174675,1.8778274 6.2850769,6.2850777 0 0 0 4.791265,2.5536789 0.47273829,0.47273836 0 0 0 4.699765,2.4704972 L 3.6579157,1.7343389 A 0.62499409,0.62499418 0 0 0 2.8843258,1.8008843 L 1.7988044,2.8864058 a 0.62499409,0.62499418 0 0 0 -0.064466,0.7715104 l 0.7361581,1.0439306 a 0.49616226,0.49616233 0 0 0 0.081102,0.08942 A 6.2946594,6.2946603 0 0 0 1.8778266,6.419549 0.46528521,0.46528527 0 0 0 1.7572132,6.423709 L 0.49701072,6.6420605 A 0.62392937,0.62392945 0 0 0 0,7.2326507 V 8.7673532 A 0.62392937,0.62392945 0 0 0 0.49701072,9.3579439 L 1.7572137,9.5762958 a 0.49616226,0.49616233 0 0 0 0.1206134,0.00628 6.2829474,6.2829483 0 0 0 0.6737719,1.6262032 0.48338555,0.48338562 0 0 0 -0.081102,0.0915 L 1.7343386,12.34213 a 0.62392937,0.62392945 0 0 0 0.064466,0.77151 l 1.0855213,1.085522 a 0.62392937,0.62392945 0 0 0 0.7735899,0.06654 l 1.0418508,-0.736203 a 0.47273829,0.47273836 0 0 0 0.0915,-0.08319 6.2904005,6.2904014 0 0 0 1.6428388,0.677931 0.52703931,0.52703938 0 0 0 0,0.187159 l 0.195477,1.120874 A 0.71017216,0.71017226 0 0 0 7.3033542,16 h 1.3932937 a 0.71017216,0.71017226 0 0 0 0.6737719,-0.567715 l 0.1954769,-1.120874 a 0.53449239,0.53449247 0 0 0 0,-0.187159 6.2904005,6.2904014 0 0 0 1.6428393,-0.677931 0.47273829,0.47273836 0 0 0 0.0915,0.08319 l 1.041852,0.736158 a 0.62392937,0.62392945 0 0 0 0.771509,-0.06655 l 1.085523,-1.085522 a 0.62392937,0.62392945 0 0 0 0.06655,-0.77151 l -0.736159,-1.043931 a 0.48445028,0.48445034 0 0 0 -0.08319,-0.08942 6.2840122,6.284013 0 0 0 0.675852,-1.6262027 0.49296808,0.49296815 0 0 0 0.120613,-0.00628 L 15.502989,9.3579045 A 0.62499409,0.62499418 0 0 0 16,8.767318 V 7.2326507 A 0.62499409,0.62499418 0 0 0 15.502991,6.6420605 l -1.260203,-0.218352 a 0.46209103,0.4620911 0 0 0 -0.120613,-0.00416 6.2840122,6.284013 0 0 0 -0.675852,-1.6282822 0.49722699,0.49722705 0 0 0 0.08319,-0.08942 L 14.265669,3.6579126 A 0.62392937,0.62392945 0 0 0 14.199124,2.8864022 L 13.113596,1.8008843 a 0.62392937,0.62392945 0 0 0 -0.77151,-0.066545 l -1.041851,0.7361583 a 0.47273829,0.47273836 0 0 0 -0.0915,0.083182 A 6.2904005,6.2904014 0 0 0 9.582533,1.8778274 0.4769972,0.47699726 0 0 0 9.5762944,1.7572139 L 9.360022,0.49909032 A 0.62392937,0.62392945 0 0 0 8.7673522,0 Z" />
  <path
     id="tick"
     style="color:#000000;fill:#ffffff;stroke-width:0.694057;-inkscape-stroke:none"
     d="m 10.941606,4.7632183 c -0.188802,2e-7 -0.377604,0.070339 -0.519639,0.2123741 L 7.0307597,8.3690585 5.5780308,6.9163298 c -0.2840646,-0.2840907 -0.7552127,-0.2840908 -1.0392773,0 L 3.9897439,7.46308 c -0.2840404,0.2840708 -0.2840602,0.7552144 0,1.0392779 L 6.511121,11.023735 c 0.2840555,0.284083 0.755207,0.284042 1.0392773,0 L 12.010254,6.5638792 c 0.284043,-0.284071 0.284064,-0.7552153 0,-1.0392772 L 11.461244,4.9755924 C 11.319209,4.8335571 11.130407,4.7632182 10.941606,4.7632183 Z" />
</svg>
